<svg version="1.1" id="Layer_1" xmlns="http://www.w3.org/2000/svg" xmlns:xlink="http://www.w3.org/1999/xlink" x="0px" y="0px" width="100%px" viewBox="0 0 496 496" enable-background="new 0 0 496 496" xml:space="preserve" height="100px" transform="rotate(0) scale(1, 1)">
<path fill="#ff0000" opacity="1.000000" stroke="none" d="&#10;M296.322632,344.055176 &#10;&#9;C293.227020,359.002258 285.853027,370.713837 273.666931,380.321838 &#10;&#9;C271.953003,376.367645 273.490387,373.500305 273.946106,370.758087 &#10;&#9;C275.552338,361.092865 277.613739,351.504150 279.343262,341.857849 &#10;&#9;C279.779846,339.422791 279.638428,336.882172 279.737976,334.389069 &#10;&#9;C279.929993,329.580170 277.726318,326.710175 273.091858,325.134308 &#10;&#9;C261.244934,321.106018 251.570297,313.984283 244.208664,303.816650 &#10;&#9;C240.199738,298.279694 240.453308,295.461243 245.520782,290.909180 &#10;&#9;C248.989883,287.792908 252.699432,284.941833 256.128937,281.784790 &#10;&#9;C258.615936,279.495361 260.242188,279.931183 262.109650,282.571838 &#10;&#9;C265.091827,286.788849 268.375000,290.800934 272.268402,294.233795 &#10;&#9;C273.962952,295.727905 275.439514,297.648224 278.112274,298.039917 &#10;&#9;C280.685974,290.772552 279.565002,283.176605 280.379608,275.819366 &#10;&#9;C281.714172,263.766052 281.776550,251.577682 282.757996,239.477310 &#10;&#9;C283.385803,231.736847 280.986542,225.095184 277.019592,218.719040 &#10;&#9;C274.646332,214.904510 272.340698,211.026535 270.320984,207.017731 &#10;&#9;C265.591217,197.630112 267.059418,188.937469 273.846191,181.091461 &#10;&#9;C277.891571,176.414688 282.640717,172.459625 287.354858,168.485382 &#10;&#9;C294.236786,162.683578 299.428589,155.907684 302.225311,147.080841 &#10;&#9;C305.313507,137.333832 311.652344,129.546844 319.553345,123.080582 &#10;&#9;C320.698395,122.143471 321.862091,121.163910 323.840454,121.501160 &#10;&#9;C323.690674,126.204727 321.540192,130.399200 320.357208,134.807098 &#10;&#9;C318.892090,140.266373 317.190643,145.667419 315.426849,151.039627 &#10;&#9;C314.152679,154.920670 314.835571,157.297928 319.250854,158.365570 &#10;&#9;C323.603455,159.418045 327.857361,160.965836 331.698975,163.417618 &#10;&#9;C344.015442,171.278275 345.496674,183.130646 335.350220,193.569397 &#10;&#9;C330.764679,198.287048 325.990234,202.821106 321.265198,207.474228 &#10;&#9;C319.784424,205.780090 320.719025,204.733170 320.993317,203.700760 &#10;&#9;C322.832581,196.777573 320.121552,188.724350 314.488831,184.526993 &#10;&#9;C310.435883,181.506866 308.981506,181.834137 307.038544,186.443619 &#10;&#9;C304.207214,193.160797 304.476532,200.159561 305.857666,207.073700 &#10;&#9;C307.924927,217.422318 313.405945,226.170532 319.410858,234.656860 &#10;&#9;C326.037048,244.021210 333.392456,252.916946 337.755341,263.742157 &#10;&#9;C347.752686,288.547546 335.613892,317.410645 310.487854,326.577148 &#10;&#9;C301.851624,329.727844 296.164246,333.863312 296.322632,344.055176 &#10;M321.608337,298.924683 &#10;&#9;C318.811798,281.652252 310.089966,267.192047 299.728088,251.794098 &#10;&#9;C299.550842,254.778961 299.394806,256.215271 299.391296,257.651978 &#10;&#9;C299.361328,269.954315 299.336121,282.256744 299.353912,294.559113 &#10;&#9;C299.378448,311.517365 297.875336,308.208649 313.587616,311.451538 &#10;&#9;C313.912231,311.518524 314.243774,311.562103 314.574371,311.588318 &#10;&#9;C318.795197,311.923462 321.279541,310.036041 321.665192,305.783295 &#10;&#9;C321.844391,303.807220 321.666016,301.798737 321.608337,298.924683 &#10;M292.666656,180.514160 &#10;&#9;C292.809021,178.592148 292.289581,177.199997 290.000397,177.396515 &#10;&#9;C287.861359,177.580109 287.134399,179.090332 287.502502,180.871628 &#10;&#9;C288.005371,183.305023 287.998779,186.065063 290.416016,187.942703 &#10;&#9;C292.092407,185.831329 291.998810,183.434479 292.666656,180.514160 &#10;z"/>
<path fill="#ff0000" opacity="1.000000" stroke="none" d="&#10;M222.763168,232.988464 &#10;&#9;C227.712311,221.982193 235.001068,213.770294 245.637863,208.769119 &#10;&#9;C247.230148,210.506378 246.111069,211.643509 245.628754,212.768951 &#10;&#9;C237.891235,230.823929 237.014679,249.172104 243.437637,267.758392 &#10;&#9;C244.604172,271.134064 244.469528,274.106567 241.901337,276.487793 &#10;&#9;C236.917511,281.108765 231.719482,285.498718 226.093445,290.438110 &#10;&#9;C221.052170,282.394379 220.609695,273.499390 218.406738,264.697205 &#10;&#9;C212.107178,270.629547 206.254135,276.010376 200.549042,281.543732 &#10;&#9;C191.277832,290.535858 182.962006,291.085052 175.464325,278.643250 &#10;&#9;C175.056168,277.965973 174.419571,277.426361 173.677353,276.581360 &#10;&#9;C169.519913,279.658722 165.598251,282.698334 161.539474,285.542297 &#10;&#9;C143.321487,298.307373 122.890175,304.611664 100.853249,306.176910 &#10;&#9;C95.657372,306.545990 90.499268,306.075165 85.477974,304.877136 &#10;&#9;C70.119720,301.212799 62.108292,286.748291 66.161865,270.324951 &#10;&#9;C66.400803,269.356873 66.623817,268.383453 66.904259,267.427216 &#10;&#9;C75.248055,238.976151 109.214462,210.156281 138.733002,207.007080 &#10;&#9;C148.680038,205.945877 158.388535,207.773819 166.818115,213.704514 &#10;&#9;C175.802567,220.025574 177.794540,229.799744 171.994797,239.119904 &#10;&#9;C167.993408,245.550125 162.541840,250.521133 155.273712,254.619904 &#10;&#9;C155.573563,250.458923 156.385040,246.974686 155.384018,243.631760 &#10;&#9;C153.882004,238.615738 150.586884,234.991837 146.109924,232.312164 &#10;&#9;C131.945282,223.833984 110.615044,224.923630 97.441139,234.865295 &#10;&#9;C87.044456,242.711121 82.732887,256.468506 86.805962,268.800079 &#10;&#9;C90.690010,280.559357 101.589745,287.296722 116.129242,286.505341 &#10;&#9;C132.043320,285.639160 147.387527,282.203339 162.053436,275.778900 &#10;&#9;C169.327042,272.592712 173.391541,267.767792 174.935287,259.558685 &#10;&#9;C178.064789,242.917023 186.043961,228.627136 199.120728,217.499069 &#10;&#9;C201.127762,215.791107 203.121323,214.001709 206.095535,213.148697 &#10;&#9;C206.499649,215.373795 204.853760,216.529755 204.010498,217.929153 &#10;&#9;C196.663635,230.121414 192.828735,243.037399 195.125687,257.442200 &#10;&#9;C195.738922,261.287964 196.333557,264.628723 200.690018,265.906097 &#10;&#9;C205.352509,267.273193 209.240417,265.820160 212.604584,262.769653 &#10;&#9;C215.551849,260.097137 216.706100,256.375427 217.685776,252.639771 &#10;&#9;C219.369659,246.218964 219.816986,239.481171 222.763168,232.988464 &#10;z"/>
<path fill="#ff0000" opacity="1.000000" stroke="none" d="&#10;M414.094849,302.165100 &#10;&#9;C421.581696,305.533051 428.738007,303.508972 437.501862,301.721527 &#10;&#9;C432.759430,308.816010 427.946411,313.931854 422.346527,318.159210 &#10;&#9;C414.479980,324.097687 405.537231,326.809448 396.094543,322.683228 &#10;&#9;C385.844452,318.204224 382.263062,308.820831 380.713745,298.537598 &#10;&#9;C379.236298,288.731384 380.755554,278.934265 381.308350,269.150879 &#10;&#9;C381.471283,266.267273 381.254791,263.519928 380.753571,260.733246 &#10;&#9;C380.509674,259.377167 380.193665,257.957672 378.657776,257.652008 &#10;&#9;C377.111115,257.344208 376.271759,258.643036 375.515045,259.711060 &#10;&#9;C371.310760,265.644806 370.712799,272.724762 369.318390,279.542938 &#10;&#9;C366.552063,293.069305 359.650421,303.700714 347.610657,311.258270 &#10;&#9;C345.537445,307.582458 347.246338,304.377563 347.722076,301.288635 &#10;&#9;C352.323181,271.413177 355.904755,241.370941 361.779388,211.704803 &#10;&#9;C364.026642,200.356369 367.982117,189.546066 376.050232,180.776413 &#10;&#9;C378.850922,177.732162 381.925598,175.023987 387.122894,172.847183 &#10;&#9;C379.999664,200.241287 374.242126,226.689651 372.884216,254.970367 &#10;&#9;C378.657715,249.682358 383.621826,245.077179 388.655914,240.549789 &#10;&#9;C391.127472,238.326996 393.709045,235.566376 397.405060,237.181641 &#10;&#9;C401.196411,238.838562 401.247650,242.602371 401.362915,246.187332 &#10;&#9;C401.700500,256.688660 399.447662,267.109863 400.346771,277.613831 &#10;&#9;C401.208313,287.678925 404.696625,296.384216 414.094849,302.165100 &#10;z"/>
</svg>